<svg width="25" height="25" viewBox="0 0 25 25" fill="none" xmlns="http://www.w3.org/2000/svg">
<path d="M0.774414 12.5H15.4275" stroke="white" stroke-width="1.5" stroke-linecap="round" stroke-linejoin="round"/>
<path d="M11.6582 8.09729L16.0572 12.5513L11.7511 16.9027" stroke="white" stroke-width="1.5" stroke-linecap="round" stroke-linejoin="round"/>
<path d="M12.7837 0.769714H12.5049C10.0317 0.773638 7.62289 1.55364 5.62208 2.99848C3.62127 4.44331 2.13064 6.47918 1.36279 8.81569" stroke="white" stroke-width="1.5" stroke-linecap="round" stroke-linejoin="round"/>
<path d="M1.34229 16.1125C2.01974 18.1397 3.24414 19.9433 4.88202 21.3265C6.5199 22.7098 8.50841 23.6196 10.6308 23.957C12.7532 24.2943 14.9281 24.0461 16.9183 23.2395C18.9086 22.4329 20.6378 21.0988 21.9176 19.3826C23.1975 17.6664 23.9787 15.634 24.1762 13.5069C24.3737 11.3798 23.9799 9.23964 23.0377 7.31967C22.0956 5.3997 20.6412 3.77361 18.833 2.61863C17.0249 1.46365 14.9325 0.824111 12.7838 0.769714" stroke="white" stroke-width="1.5" stroke-linecap="round" stroke-linejoin="round"/>
</svg>
