<svg width="22" height="22" viewBox="0 0 22 22" fill="none" xmlns="http://www.w3.org/2000/svg">
<path d="M10.9847 0C6.5388 0 2.92188 3.61693 2.92188 8.06285C2.92188 10.1052 4.20876 12.9908 6.74693 16.6396C8.60214 19.3069 10.4268 21.3709 10.5037 21.4575L10.9847 22L11.4659 21.4575C11.5426 21.3709 13.3673 19.3069 15.2227 16.6396C17.7607 12.9908 19.0477 10.1052 19.0477 8.06285C19.0477 3.61693 15.4306 0 10.9847 0ZM14.1738 15.8947C12.9198 17.6988 11.6524 19.2513 10.9847 20.0434C10.3187 19.2535 9.056 17.7068 7.80286 15.9052C5.45116 12.5244 4.20808 9.81248 4.20808 8.06285C4.20808 4.32625 7.24812 1.28621 10.9847 1.28621C14.7215 1.28621 17.7614 4.32625 17.7614 8.06285C17.7614 9.81064 16.5208 12.5188 14.1738 15.8947Z" fill="#383838"/>
<path d="M10.9847 2.97995C8.36075 2.97995 6.22607 5.11462 6.22607 7.73857C6.22607 10.3625 8.36075 12.4974 10.9847 12.4974C13.6088 12.4974 15.7435 10.3625 15.7435 7.73857C15.7435 5.11462 13.6088 2.97995 10.9847 2.97995ZM10.9847 11.2112C9.07007 11.2112 7.51228 9.65337 7.51228 7.73857C7.51228 5.82394 9.07007 4.26616 10.9847 4.26616C12.8995 4.26616 14.4573 5.82394 14.4573 7.73857C14.4573 9.65337 12.8995 11.2112 10.9847 11.2112Z" fill="#383838"/>
</svg>
