<svg width="25" height="25" viewBox="0 0 25 25" fill="none" xmlns="http://www.w3.org/2000/svg">
<path d="M0.915039 24.0722C7.45481 17.9614 19.0214 18.9015 24.0971 24.0722" stroke="#6B6B6B" stroke-width="1.5" stroke-linecap="round" stroke-linejoin="round"/>
<path d="M9.68753 11.3805C8.54445 10.687 7.68833 9.5966 7.27802 8.31168C6.86772 7.02677 6.93108 5.63457 7.45637 4.39343C7.98165 3.15228 8.93319 2.14647 10.1344 1.56262C11.3356 0.978774 12.705 0.856538 13.9883 1.21859C15.2717 1.58065 16.3819 2.40242 17.113 3.53141C17.8442 4.6604 18.1465 6.01995 17.964 7.35779C17.7814 8.69562 17.1264 9.92091 16.1204 10.8063C15.1145 11.6916 13.8259 12.177 12.4938 12.1722C11.5042 12.1762 10.5329 11.9022 9.68753 11.3805" stroke="#6B6B6B" stroke-width="1.5" stroke-linecap="round" stroke-linejoin="round"/>
</svg>
